HIERARCHY
ROOT Character1_Hips
{
	OFFSET 0.000000 86.858185 1.182688
	CHANNELS 6 Xposition Yposition Zposition Xrotation Yrotation Zrotation
	JOINT Character1_LeftUpLeg
	{
		OFFSET 7.276832 -6.057800 0.207883
		CHANNELS 6 Xposition Yposition Zposition Xrotation Yrotation Zrotation
		JOINT Character1_LeftLeg
		{
			OFFSET -1.823140 -35.110466 -1.568847
			CHANNELS 6 Xposition Yposition Zposition Xrotation Yrotation Zrotation
			JOINT Character1_LeftFoot
			{
				OFFSET -1.031196 -37.817070 -1.726818
				CHANNELS 6 Xposition Yposition Zposition Xrotation Yrotation Zrotation
				JOINT Character1_LeftToeBase
				{
					OFFSET 0.202457 -5.287532 8.122427
					CHANNELS 6 Xposition Yposition Zposition Xrotation Yrotation Zrotation
					End Site
					{
						OFFSET 0.009223 0.000047 9.693953
					}
				}
			}
		}
	}
	JOINT Character1_RightUpLeg
	{
		OFFSET -7.276832 -6.057770 0.207879
		CHANNELS 6 Xposition Yposition Zposition Xrotation Yrotation Zrotation
		JOINT Character1_RightLeg
		{
			OFFSET 1.823196 -35.109627 -1.587624
			CHANNELS 6 Xposition Yposition Zposition Xrotation Yrotation Zrotation
			JOINT Character1_RightFoot
			{
				OFFSET 1.031267 -37.817833 -1.710079
				CHANNELS 6 Xposition Yposition Zposition Xrotation Yrotation Zrotation
				JOINT Character1_RightToeBase
				{
					OFFSET -0.202449 -5.287759 8.122276
					CHANNELS 6 Xposition Yposition Zposition Xrotation Yrotation Zrotation
					End Site
					{
						OFFSET 0.001154 -0.000006 9.693956
					}
				}
			}
		}
	}
	JOINT Character1_Spine
	{
		OFFSET -0.000001 2.271347 0.818150
		CHANNELS 6 Xposition Yposition Zposition Xrotation Yrotation Zrotation
		JOINT Character1_Spine1
		{
			OFFSET -0.000001 9.085945 0.955446
			CHANNELS 6 Xposition Yposition Zposition Xrotation Yrotation Zrotation
			JOINT Character1_Spine2
			{
				OFFSET -0.000002 8.765564 -0.142866
				CHANNELS 6 Xposition Yposition Zposition Xrotation Yrotation Zrotation
				JOINT Character1_LeftShoulder
				{
					OFFSET 4.211487 11.612236 -3.873799
					CHANNELS 6 Xposition Yposition Zposition Xrotation Yrotation Zrotation
					JOINT Character1_LeftArm
					{
						OFFSET 5.543700 0.000031 -0.000005
						CHANNELS 6 Xposition Yposition Zposition Xrotation Yrotation Zrotation
						JOINT Character1_LeftForeArm
						{
							OFFSET 23.377409 -0.123474 0.033367
							CHANNELS 6 Xposition Yposition Zposition Xrotation Yrotation Zrotation
							JOINT Character1_LeftHand
							{
								OFFSET 16.247719 -0.118858 0.035829
								CHANNELS 6 Xposition Yposition Zposition Xrotation Yrotation Zrotation
								JOINT Character1_LeftHandThumb1
								{
									OFFSET 2.510399 -0.904045 2.091601
									CHANNELS 6 Xposition Yposition Zposition Xrotation Yrotation Zrotation
									JOINT Character1_LeftHandThumb2
									{
										OFFSET 2.570465 -1.130470 1.584520
										CHANNELS 6 Xposition Yposition Zposition Xrotation Yrotation Zrotation
										JOINT Character1_LeftHandThumb3
										{
											OFFSET 1.420841 -0.605858 0.842600
											CHANNELS 6 Xposition Yposition Zposition Xrotation Yrotation Zrotation
											JOINT Character1_LeftHandThumb4
											{
												OFFSET 2.153469 -0.757797 1.312965
												CHANNELS 6 Xposition Yposition Zposition Xrotation Yrotation Zrotation
												End Site
												{
													OFFSET 2.158772 -0.733734 1.317914
												}
											}
										}
									}
								}
								JOINT Character1_LeftHandIndex1
								{
									OFFSET 8.043888 0.989311 2.480770
									CHANNELS 6 Xposition Yposition Zposition Xrotation Yrotation Zrotation
									JOINT Character1_LeftHandIndex2
									{
										OFFSET 2.427021 0.011856 0.268371
										CHANNELS 6 Xposition Yposition Zposition Xrotation Yrotation Zrotation
										JOINT Character1_LeftHandIndex3
										{
											OFFSET 1.609932 0.007866 0.037315
											CHANNELS 6 Xposition Yposition Zposition Xrotation Yrotation Zrotation
											JOINT Character1_LeftHandIndex4
											{
												OFFSET 2.130016 0.049431 0.114431
												CHANNELS 6 Xposition Yposition Zposition Xrotation Yrotation Zrotation
												End Site
												{
													OFFSET 2.119099 0.211617 -0.131005
												}
											}
										}
									}
								}
								JOINT Character1_LeftHandMiddle1
								{
									OFFSET 8.038177 1.007423 0.439338
									CHANNELS 6 Xposition Yposition Zposition Xrotation Yrotation Zrotation
									JOINT Character1_LeftHandMiddle2
									{
										OFFSET 2.527046 -0.234444 -0.080977
										CHANNELS 6 Xposition Yposition Zposition Xrotation Yrotation Zrotation
										JOINT Character1_LeftHandMiddle3
										{
											OFFSET 1.931313 -0.179352 -0.117768
											CHANNELS 6 Xposition Yposition Zposition Xrotation Yrotation Zrotation
											JOINT Character1_LeftHandMiddle4
											{
												OFFSET 2.196999 0.041229 -0.161456
												CHANNELS 6 Xposition Yposition Zposition Xrotation Yrotation Zrotation
												End Site
												{
													OFFSET 2.197571 -0.071640 -0.141814
												}
											}
										}
									}
								}
								JOINT Character1_LeftHandRing1
								{
									OFFSET 7.662090 0.616508 -1.366725
									CHANNELS 6 Xposition Yposition Zposition Xrotation Yrotation Zrotation
									JOINT Character1_LeftHandRing2
									{
										OFFSET 2.249855 -0.592636 -0.461933
										CHANNELS 6 Xposition Yposition Zposition Xrotation Yrotation Zrotation
										JOINT Character1_LeftHandRing3
										{
											OFFSET 1.521790 -0.400856 -0.248318
											CHANNELS 6 Xposition Yposition Zposition Xrotation Yrotation Zrotation
											JOINT Character1_LeftHandRing4
											{
												OFFSET 2.446365 -0.396080 -0.528466
												CHANNELS 6 Xposition Yposition Zposition Xrotation Yrotation Zrotation
												End Site
												{
													OFFSET 2.437840 -0.527443 -0.446790
												}
											}
										}
									}
								}
								JOINT Character1_LeftHandPinky1
								{
									OFFSET 6.585136 -0.139000 -2.766160
									CHANNELS 6 Xposition Yposition Zposition Xrotation Yrotation Zrotation
									JOINT Character1_LeftHandPinky2
									{
										OFFSET 1.631428 -0.600632 -0.502815
										CHANNELS 6 Xposition Yposition Zposition Xrotation Yrotation Zrotation
										JOINT Character1_LeftHandPinky3
										{
											OFFSET 1.227242 -0.468956 -0.457904
											CHANNELS 6 Xposition Yposition Zposition Xrotation Yrotation Zrotation
											JOINT Character1_LeftHandPinky4
											{
												OFFSET 1.696033 -0.584229 -0.687828
												CHANNELS 6 Xposition Yposition Zposition Xrotation Yrotation Zrotation
												End Site
												{
													OFFSET 1.705387 -0.567787 -0.678411
												}
											}
										}
									}
								}
							}
						}
					}
				}
				JOINT Character1_RightShoulder
				{
					OFFSET -4.211487 11.612236 -3.873799
					CHANNELS 6 Xposition Yposition Zposition Xrotation Yrotation Zrotation
					JOINT Character1_RightArm
					{
						OFFSET -5.543744 0.000023 -0.000004
						CHANNELS 6 Xposition Yposition Zposition Xrotation Yrotation Zrotation
						JOINT Character1_RightForeArm
						{
							OFFSET -23.377581 -0.123566 0.033386
							CHANNELS 6 Xposition Yposition Zposition Xrotation Yrotation Zrotation
							JOINT Character1_RightHand
							{
								OFFSET -16.247574 -0.118851 0.036247
								CHANNELS 6 Xposition Yposition Zposition Xrotation Yrotation Zrotation
								JOINT Character1_RightHandThumb1
								{
									OFFSET -2.510384 -0.904091 2.091566
									CHANNELS 6 Xposition Yposition Zposition Xrotation Yrotation Zrotation
									JOINT Character1_RightHandThumb2
									{
										OFFSET -2.579426 -1.121681 1.537416
										CHANNELS 6 Xposition Yposition Zposition Xrotation Yrotation Zrotation
										JOINT Character1_RightHandThumb3
										{
											OFFSET -1.429546 -0.616760 0.819528
											CHANNELS 6 Xposition Yposition Zposition Xrotation Yrotation Zrotation
											JOINT Character1_RightHandThumb4
											{
												OFFSET -2.167622 -0.774658 1.279505
												CHANNELS 6 Xposition Yposition Zposition Xrotation Yrotation Zrotation
												End Site
												{
													OFFSET -2.137974 -0.606712 1.413074
												}
											}
										}
									}
								}
								JOINT Character1_RightHandIndex1
								{
									OFFSET -8.043800 0.988876 2.481294
									CHANNELS 6 Xposition Yposition Zposition Xrotation Yrotation Zrotation
									JOINT Character1_RightHandIndex2
									{
										OFFSET -2.426987 0.011948 0.268470
										CHANNELS 6 Xposition Yposition Zposition Xrotation Yrotation Zrotation
										JOINT Character1_RightHandIndex3
										{
											OFFSET -1.609989 0.007927 0.037374
											CHANNELS 6 Xposition Yposition Zposition Xrotation Yrotation Zrotation
											JOINT Character1_RightHandIndex4
											{
												OFFSET -2.129982 0.049034 0.114512
												CHANNELS 6 Xposition Yposition Zposition Xrotation Yrotation Zrotation
												End Site
												{
													OFFSET -2.123772 0.204735 0.006035
												}
											}
										}
									}
								}
								JOINT Character1_RightHandMiddle1
								{
									OFFSET -8.038174 1.006859 0.439860
									CHANNELS 6 Xposition Yposition Zposition Xrotation Yrotation Zrotation
									JOINT Character1_RightHandMiddle2
									{
										OFFSET -2.526997 -0.234062 -0.080875
										CHANNELS 6 Xposition Yposition Zposition Xrotation Yrotation Zrotation
										JOINT Character1_RightHandMiddle3
										{
											OFFSET -1.931465 -0.179070 -0.117694
											CHANNELS 6 Xposition Yposition Zposition Xrotation Yrotation Zrotation
											JOINT Character1_RightHandMiddle4
											{
												OFFSET -2.196987 0.042816 -0.161370
												CHANNELS 6 Xposition Yposition Zposition Xrotation Yrotation Zrotation
												End Site
												{
													OFFSET -2.184029 -0.187660 -0.222307
												}
											}
										}
									}
								}
								JOINT Character1_RightHandRing1
								{
									OFFSET -7.662136 0.615837 -1.366219
									CHANNELS 6 Xposition Yposition Zposition Xrotation Yrotation Zrotation
									JOINT Character1_RightHandRing2
									{
										OFFSET -2.249901 -0.592049 -0.461829
										CHANNELS 6 Xposition Yposition Zposition Xrotation Yrotation Zrotation
										JOINT Character1_RightHandRing3
										{
											OFFSET -1.521889 -0.400475 -0.248259
											CHANNELS 6 Xposition Yposition Zposition Xrotation Yrotation Zrotation
											JOINT Character1_RightHandRing4
											{
												OFFSET -2.446423 -0.395401 -0.528361
												CHANNELS 6 Xposition Yposition Zposition Xrotation Yrotation Zrotation
												End Site
												{
													OFFSET -2.430859 -0.503899 -0.507441
												}
											}
										}
									}
								}
								JOINT Character1_RightHandPinky1
								{
									OFFSET -6.585262 -0.139153 -2.765680
									CHANNELS 6 Xposition Yposition Zposition Xrotation Yrotation Zrotation
									JOINT Character1_RightHandPinky2
									{
										OFFSET -1.631413 -0.601036 -0.502742
										CHANNELS 6 Xposition Yposition Zposition Xrotation Yrotation Zrotation
										JOINT Character1_RightHandPinky3
										{
											OFFSET -1.227207 -0.469040 -0.457860
											CHANNELS 6 Xposition Yposition Zposition Xrotation Yrotation Zrotation
											JOINT Character1_RightHandPinky4
											{
												OFFSET -1.696110 -0.584045 -0.687750
												CHANNELS 6 Xposition Yposition Zposition Xrotation Yrotation Zrotation
												End Site
												{
													OFFSET -1.689350 -0.584435 -0.703875
												}
											}
										}
									}
								}
							}
						}
					}
				}
				JOINT Character1_Neck
				{
					OFFSET -0.000001 15.167763 -4.080687
					CHANNELS 6 Xposition Yposition Zposition Xrotation Yrotation Zrotation
					JOINT Character1_Head
					{
						OFFSET -0.000001 7.825302 -0.202157
						CHANNELS 6 Xposition Yposition Zposition Xrotation Yrotation Zrotation
						JOINT J_R_HairTail_00
						{
							OFFSET -6.209000 2.264816 -7.399083
							CHANNELS 6 Xposition Yposition Zposition Xrotation Yrotation Zrotation
							End Site
							{
								OFFSET -2.180591 -11.067337 -2.694725
							}
						}
					}
				}
				JOINT J_R_Mune_00
				{
					OFFSET -2.925001 2.684891 0.061887
					CHANNELS 6 Xposition Yposition Zposition Xrotation Yrotation Zrotation
					JOINT J_R_Mune_01
					{
						OFFSET -7.794388 2.801010 16.635391
						CHANNELS 6 Xposition Yposition Zposition Xrotation Yrotation Zrotation
						JOINT J_R_Mune_02
						{
							OFFSET 6.838630 -2.377007 -14.605499
							CHANNELS 6 Xposition Yposition Zposition Xrotation Yrotation Zrotation
							End Site
							{
								OFFSET -14.795670 -0.834061 -6.791919
							}
						}
					}
				}
				JOINT J_L_Mune_00
				{
					OFFSET 2.925019 2.684776 0.061883
					CHANNELS 6 Xposition Yposition Zposition Xrotation Yrotation Zrotation
					JOINT J_L_Mune_01
					{
						OFFSET 7.794374 2.801254 16.635433
						CHANNELS 6 Xposition Yposition Zposition Xrotation Yrotation Zrotation
						JOINT J_L_Mune_02
						{
							OFFSET -6.838619 -2.376648 -14.605538
							CHANNELS 3 Xrotation Yrotation Zrotation
							End Site
							{
								OFFSET 14.795649 -0.834076 -6.791907
							}
						}
					}
				}
			}
		}
	}
}
MOTION
Frames: 3
Frame Time: 0.033333
1.557938 153.962952 5.880794 -1.928573 -0.109126 -0.678549 7.276834 -6.057806 0.207881 18.487224 -9.301797 3.957777 -1.823139 -35.110455 -1.568856 89.258572 -7.744023 1.035429 -1.031195 -37.817074 -1.726819 41.119009 -4.952801 -11.786314 0.202459 -5.287539 8.122434 -17.387018 0.000439 -0.000681 -7.276831 -6.057769 0.207875 9.821326 10.728574 3.166510 1.823199 -35.109631 -1.587617 84.166693 -3.825194 -2.973646 1.031266 -37.817825 -1.710076 42.157782 1.948566 2.320426 -0.202450 -5.287762 8.122283 -23.205880 -0.000109 -0.000535 -0.000001 2.271362 0.818149 -15.268903 0.487023 0.576775 -0.000001 9.085923 0.955442 1.469936 -1.422093 0.177293 -0.000003 8.765569 -0.142873 4.544389 0.096714 1.213684 4.211486 11.612236 -3.873801 0.000126 -0.000260 13.587462 5.543695 0.000026 0.000003 -102.166823 -5.113962 -56.320855 23.377403 -0.123491 0.033346 -45.673523 -80.747794 -40.356839 16.247698 -0.118845 0.035834 -1.058623 -19.936426 9.685407 2.510406 -0.904063 2.091610 -2.573671 -1.715311 7.431773 2.570456 -1.130480 1.584504 4.641429 14.920079 2.293225 1.420839 -0.605844 0.842587 5.373777 23.291413 2.709467 2.153495 -0.757816 1.312970 -0.000527 0.001069 -0.006233 8.043906 0.989310 2.480774 3.066973 13.710614 1.532222 2.427020 0.011862 0.268364 0.423032 -0.045424 -18.415582 1.609942 0.007864 0.037320 1.369495 0.271801 -24.433142 2.129985 0.049425 0.114439 -0.003573 -0.004158 -0.000996 8.038189 1.007434 0.439332 -0.329437 1.965078 -5.254538 2.527060 -0.234452 -0.080949 -1.320380 0.340321 -23.304896 1.931303 -0.179343 -0.117789 -2.194906 0.974543 -33.186229 2.197011 0.041233 -0.161462 -0.003406 -0.003947 0.001035 7.662112 0.616504 -1.366717 -11.465060 -5.992406 -0.178374 2.249882 -0.592642 -0.461956 -0.738332 1.112331 -28.734176 1.521799 -0.400845 -0.248321 -6.831821 4.426306 -25.212520 2.446366 -0.396062 -0.528465 -0.003439 -0.001584 0.000957 6.585150 -0.138990 -2.766158 -6.188405 -18.307929 5.996330 1.631419 -0.600626 -0.502810 -3.494331 1.741865 -11.170087 1.227256 -0.468960 -0.457906 -10.862951 8.682922 -35.889430 1.696039 -0.584221 -0.687838 -0.000688 -0.000142 -0.000352 -4.211488 11.612253 -3.873800 0.000122 0.000234 0.000000 -5.543743 0.000017 0.000002 -124.888629 18.804225 69.423846 -23.377573 -0.123555 0.033384 -49.210799 66.902441 57.878804 -16.247580 -0.118852 0.036245 14.698934 2.538942 -11.276429 -2.510395 -0.904105 2.091568 -7.055060 -0.039718 -13.731464 -2.579409 -1.121688 1.537441 6.117503 -19.520752 -2.673321 -1.429527 -0.616769 0.819560 7.326811 -30.564776 -3.014649 -2.167649 -0.774677 1.279525 0.009870 0.003568 -0.006320 -8.043799 0.988884 2.481304 2.009431 -9.925518 11.498627 -2.427011 0.011940 0.268474 0.066047 -0.001278 28.214166 -1.609987 0.007929 0.037368 0.000527 -0.000435 5.297994 -2.129963 0.049032 0.114516 -0.000934 -0.008487 0.004583 -8.038177 1.006861 0.439877 1.626883 0.054699 4.583786 -2.527015 -0.234056 -0.080890 -1.121449 -0.261923 37.373706 -1.931460 -0.179074 -0.117719 -1.771480 -1.184805 47.582803 -2.196999 0.042820 -0.161360 -0.000604 -0.002575 -0.003759 -7.662138 0.615840 -1.366213 -0.911319 14.831329 6.673821 -2.249886 -0.592025 -0.461827 -0.411727 -0.168787 26.030104 -1.521879 -0.400477 -0.248271 -4.277207 -1.878647 44.397657 -2.446430 -0.395412 -0.528343 0.004955 0.001075 0.007332 -6.585266 -0.139157 -2.765660 -20.673111 14.545043 1.425797 -1.631430 -0.601035 -0.502753 -4.388052 -2.335563 14.215212 -1.227208 -0.469053 -0.457842 -10.411724 -11.507557 39.807046 -1.696104 -0.584039 -0.687745 0.004246 0.003775 -0.005241 -0.000002 15.167763 -4.080696 24.325169 -1.367870 1.010678 0.000000 7.825304 -0.202162 24.137322 -0.040531 -1.623799 -6.208998 2.264832 -7.399086 22.391378 13.252961 6.852273 -2.925003 2.684898 0.061886 -0.000000 -0.000002 0.000001 -7.794393 2.800995 16.635391 0.000001 -0.000002 0.000001 6.838626 -2.377022 -14.605498 -0.000001 0.000000 -0.000000 2.925018 2.684792 0.061881 -0.000001 0.000002 -0.000000 7.794368 2.801255 16.635420 -0.000003 0.000002 0.000002 -0.000000 0.000000 0.000000 
1.557549 151.327713 4.155459 -0.639835 -0.124356 -0.675921 7.276833 -6.057796 0.207883 10.934871 -9.316895 4.079169 -1.823138 -35.110462 -1.568850 76.448668 -6.292708 0.906516 -1.031196 -37.817070 -1.726818 51.792928 -6.648110 -11.808140 0.202461 -5.287527 8.122431 -17.386986 0.000471 -0.000649 -7.276832 -6.057774 0.207877 5.821490 10.446044 2.157586 1.823197 -35.109634 -1.587619 75.529325 -2.697945 -2.594102 1.031267 -37.817837 -1.710075 42.290332 1.670171 1.363590 -0.202449 -5.287756 8.122257 -23.205805 -0.000064 -0.000518 -0.000001 2.271340 0.818150 -15.298826 0.487366 0.576976 -0.000001 9.085933 0.955447 1.523752 -1.422139 0.178579 -0.000002 8.765574 -0.142872 6.252488 0.132665 1.214070 4.211487 11.612243 -3.873794 0.000120 -0.000228 13.587440 5.543704 0.000024 0.000003 -102.138505 -5.084912 -56.319486 23.377417 -0.123484 0.033379 -44.262320 -80.490829 -38.930702 16.247757 -0.118849 0.035819 -1.241385 -20.373833 9.652939 2.510384 -0.904052 2.091598 -2.573699 -1.715279 7.431762 2.570491 -1.130470 1.584489 4.641414 14.920041 2.293283 1.420836 -0.605861 0.842582 5.373816 23.291362 2.709374 2.153469 -0.757808 1.312951 -0.000508 0.001072 -0.006227 8.043885 0.989304 2.480758 3.066940 13.710661 1.532270 2.427006 0.011860 0.268380 0.423022 -0.045500 -18.415696 1.609942 0.007854 0.037310 1.369482 0.271826 -24.433076 2.130019 0.049433 0.114414 -0.003558 -0.004192 -0.001031 8.038160 1.007420 0.439330 -0.329443 1.965120 -5.254552 2.527060 -0.234423 -0.080964 -1.320396 0.340312 -23.304915 1.931272 -0.179337 -0.117768 -2.194982 0.974579 -33.186209 2.196996 0.041223 -0.161450 -0.003332 -0.003970 0.001057 7.662078 0.616505 -1.366742 -11.465053 -5.992382 -0.178439 2.249871 -0.592647 -0.461929 -0.738358 1.112392 -28.734076 1.521776 -0.400851 -0.248294 -6.831777 4.426252 -25.212549 2.446370 -0.396084 -0.528446 -0.003425 -0.001599 0.000961 6.585126 -0.139002 -2.766167 -6.188414 -18.307854 5.996399 1.631410 -0.600644 -0.502816 -3.494383 1.741880 -11.170079 1.227251 -0.468951 -0.457917 -10.862980 8.682945 -35.889478 1.696033 -0.584208 -0.687844 -0.000716 -0.000117 -0.000315 -4.211487 11.612261 -3.873794 0.000078 0.000253 -0.000000 -5.543731 0.000037 -0.000007 -124.720661 18.616089 69.258180 -23.377569 -0.123566 0.033376 -49.637061 67.047432 58.296921 -16.247597 -0.118840 0.036246 14.485224 2.401078 -11.669606 -2.510406 -0.904109 2.091568 -7.054947 -0.039687 -13.731551 -2.579432 -1.121669 1.537406 6.117504 -19.520771 -2.673310 -1.429522 -0.616741 0.819547 7.326816 -30.564793 -3.014609 -2.167628 -0.774661 1.279513 0.009898 0.003558 -0.006347 -8.043817 0.988870 2.481301 2.009449 -9.925570 11.498610 -2.426979 0.011945 0.268473 0.066070 -0.001239 28.214229 -1.610003 0.007921 0.037379 0.000593 -0.000371 5.297990 -2.129972 0.049029 0.114502 -0.000979 -0.008556 0.004535 -8.038200 1.006849 0.439857 1.626937 0.054651 4.583760 -2.527023 -0.234072 -0.080874 -1.121499 -0.261936 37.373716 -1.931460 -0.179078 -0.117681 -1.771484 -1.184811 47.582837 -2.196985 0.042779 -0.161366 -0.000621 -0.002596 -0.003761 -7.662139 0.615829 -1.366212 -0.911292 14.831293 6.673807 -2.249897 -0.592024 -0.461825 -0.411780 -0.168798 26.030076 -1.521885 -0.400464 -0.248245 -4.277186 -1.878675 44.397667 -2.446424 -0.395402 -0.528390 0.004990 0.001096 0.007327 -6.585278 -0.139160 -2.765676 -20.673118 14.545065 1.425793 -1.631415 -0.601032 -0.502748 -4.388049 -2.335587 14.215188 -1.227184 -0.469042 -0.457846 -10.411738 -11.507617 39.806991 -1.696110 -0.584056 -0.687748 0.004332 0.003842 -0.005231 -0.000001 15.167789 -4.080683 24.325357 -1.367881 1.010646 -0.000000 7.825292 -0.202148 24.137146 -0.040526 -1.623751 -6.209000 2.264840 -7.399064 24.180900 13.799798 7.121215 -2.925002 2.684906 0.061890 -0.000001 -0.000000 0.000000 -7.794383 2.801017 16.635391 0.000002 -0.000001 -0.000000 6.838628 -2.377022 -14.605502 -0.000002 -0.000002 -0.000000 2.925018 2.684792 0.061885 0.000001 0.000002 -0.000000 7.794373 2.801277 16.635422 0.000001 0.000002 0.000001 -0.000000 0.000000 -0.000000 
1.557307 143.209763 1.149651 0.170759 -0.133915 -0.674032 7.276834 -6.057832 0.207883 -5.930362 -8.139272 4.443060 -1.823141 -35.110474 -1.568852 74.103017 -5.649385 0.524609 -1.031194 -37.817070 -1.726814 56.774383 -6.461738 -9.912654 0.202457 -5.287540 8.122418 -17.386981 0.000461 -0.000692 -7.276831 -6.057800 0.207879 -5.028771 10.456582 2.019109 1.823196 -35.109623 -1.587618 76.325042 -0.815972 -2.145168 1.031268 -37.817837 -1.710072 48.019843 1.885520 1.326348 -0.202448 -5.287755 8.122282 -23.205928 -0.000077 -0.000514 -0.000001 2.271305 0.818150 -13.840413 0.505183 0.559563 -0.000001 9.085927 0.955445 0.810053 -1.423923 0.160751 -0.000002 8.765568 -0.142865 7.557649 0.160202 1.212157 4.211489 11.612250 -3.873801 0.000129 -0.000248 13.587442 5.543688 0.000022 0.000003 -101.587336 -4.516665 -56.293781 23.377405 -0.123472 0.033349 -28.724750 -75.685101 -23.702256 16.247732 -0.118847 0.035828 -3.669812 -25.998162 9.002917 2.510374 -0.904058 2.091602 -2.573684 -1.715341 7.431690 2.570483 -1.130472 1.584508 4.641366 14.920050 2.293189 1.420838 -0.605868 0.842616 5.373824 23.291362 2.709413 2.153457 -0.757813 1.312960 -0.000518 0.001057 -0.006156 8.043868 0.989302 2.480765 3.066918 13.710620 1.532279 2.427013 0.011863 0.268372 0.423046 -0.045509 -18.415677 1.609939 0.007859 0.037308 1.369409 0.271850 -24.433156 2.130013 0.049421 0.114432 -0.003519 -0.004153 -0.000984 8.038157 1.007425 0.439336 -0.329459 1.965110 -5.254497 2.527034 -0.234452 -0.080962 -1.320374 0.340246 -23.304967 1.931310 -0.179356 -0.117774 -2.194995 0.974594 -33.186199 2.197003 0.041228 -0.161469 -0.003291 -0.003956 0.001028 7.662063 0.616501 -1.366722 -11.465053 -5.992427 -0.178436 2.249863 -0.592643 -0.461947 -0.738307 1.112337 -28.734141 1.521823 -0.400857 -0.248340 -6.831819 4.426298 -25.212527 2.446360 -0.396067 -0.528476 -0.003474 -0.001579 0.000958 6.585112 -0.138992 -2.766157 -6.188459 -18.307904 5.996228 1.631455 -0.600641 -0.502846 -3.494388 1.741868 -11.170052 1.227252 -0.468954 -0.457908 -10.862969 8.682877 -35.889465 1.696023 -0.584246 -0.687831 -0.000739 -0.000127 -0.000334 -4.211487 11.612247 -3.873803 0.000135 0.000241 -0.000000 -5.543738 0.000021 -0.000008 -122.108073 15.492274 66.688198 -23.377592 -0.123561 0.033377 -56.945111 69.133577 66.075913 -16.247566 -0.118838 0.036262 11.646622 0.836782 -16.811809 -2.510372 -0.904094 2.091564 -7.054871 -0.039616 -13.731446 -2.579415 -1.121683 1.537426 6.117482 -19.520886 -2.673394 -1.429546 -0.616760 0.819534 7.326904 -30.564629 -3.014594 -2.167613 -0.774646 1.279506 0.009831 0.003721 -0.006252 -8.043771 0.988886 2.481303 2.009541 -9.925487 11.498688 -2.426980 0.011948 0.268467 0.066016 -0.001259 28.214251 -1.609997 0.007932 0.037368 0.000596 -0.000399 5.297985 -2.129962 0.049066 0.114500 -0.000966 -0.008512 0.004571 -8.038140 1.006869 0.439864 1.626966 0.054721 4.583822 -2.526995 -0.234068 -0.080888 -1.121508 -0.262020 37.373798 -1.931475 -0.179054 -0.117688 -1.771431 -1.184828 47.582851 -2.196993 0.042813 -0.161362 -0.000582 -0.002547 -0.003780 -7.662107 0.615846 -1.366212 -0.911263 14.831312 6.673829 -2.249887 -0.592050 -0.461845 -0.411760 -0.168761 26.030080 -1.521880 -0.400462 -0.248271 -4.277224 -1.878695 44.397760 -2.446428 -0.395393 -0.528378 0.004965 0.001087 0.007316 -6.585242 -0.139143 -2.765686 -20.673057 14.545021 1.425857 -1.631407 -0.601016 -0.502757 -4.388142 -2.335369 14.215270 -1.227211 -0.469036 -0.457865 -10.411708 -11.507761 39.807046 -1.696098 -0.584051 -0.687745 0.004268 0.003823 -0.005269 -0.000000 15.167789 -4.080693 24.324990 -1.367883 1.010613 -0.000002 7.825291 -0.202149 24.137424 -0.040498 -1.623781 -6.208998 2.264814 -7.399078 25.967256 14.353043 7.372390 -2.925001 2.684914 0.061884 0.000000 -0.000002 0.000000 -7.794388 2.801002 16.635397 0.000001 -0.000001 0.000001 6.838629 -2.377014 -14.605499 0.000000 0.000000 -0.000000 2.925019 2.684807 0.061877 0.000002 0.000000 0.000000 7.794374 2.801247 16.635429 -0.000001 0.000002 -0.000000 0.000001 0.000004 -0.000000 
